HIERARCHY
ROOT Hips
{
  OFFSET 1.44925e-005 102.336 -0.101585
  CHANNELS 6 Xposition Yposition Zposition Zrotation Xrotation Yrotation
  JOINT LeftUpLeg
  {
    OFFSET 8.9458 -8.66707 0.101652
    CHANNELS 3 Zrotation Xrotation Yrotation
    JOINT LeftLeg
    {
      OFFSET 0 -44.4227 1.3727
      CHANNELS 3 Zrotation Xrotation Yrotation
      JOINT LeftFoot
      {
        OFFSET -0.253549 -42.0924 -1.46059
        CHANNELS 3 Zrotation Xrotation Yrotation
        JOINT LeftToes
        {
          OFFSET -0.04 -4.41509 8.4991
          CHANNELS 3 Zrotation Xrotation Yrotation
          End Site
          {
            OFFSET 0.08 -0.047448 9.77979
          }
        }
      }
    }
  }
  JOINT Spine
  {
    OFFSET 0 11.8905 0
    CHANNELS 3 Zrotation Xrotation Yrotation
    JOINT Spine1
    {
      OFFSET 0 25.6574 0.127663
      CHANNELS 3 Zrotation Xrotation Yrotation
      JOINT RightShoulder
      {
        OFFSET -8.99 -0.362252 -0.22
        CHANNELS 3 Zrotation Xrotation Yrotation
        JOINT RightArm
        {
          OFFSET -10.2827 -0.00338 0.322123
          CHANNELS 3 Zrotation Xrotation Yrotation
          JOINT RightForeArm
          {
            OFFSET -26.364 0.099144 -1.42434
            CHANNELS 3 Zrotation Xrotation Yrotation
            JOINT RightHand
            {
              OFFSET -22.0324 0.085362 1.02216
              CHANNELS 3 Zrotation Xrotation Yrotation
              End Site
              {
                OFFSET -13.3284 -0.6 1.50291
              }
            }
          }
        }
      }
      JOINT LeftShoulder1
      {
        OFFSET 8.99 -0.362252 -0.22
        CHANNELS 3 Zrotation Xrotation Yrotation
        JOINT LeftArm
        {
          OFFSET 10.2827 -0.00337999 0.322123
          CHANNELS 3 Zrotation Xrotation Yrotation
          JOINT LeftForeArm
          {
            OFFSET 26.2597 0.099144 -1.42434
            CHANNELS 3 Zrotation Xrotation Yrotation
            JOINT LeftHand
            {
              OFFSET 22.0902 0.085362 1.02216
              CHANNELS 3 Zrotation Xrotation Yrotation
              End Site
              {
                OFFSET 13.419 -0.6 1.50291
              }
            }
          }
        }
      }
      JOINT Head
      {
        OFFSET 0 8.73416 0.011341
        CHANNELS 3 Zrotation Xrotation Yrotation
        End Site
        {
          OFFSET -0.29 12.7742 2.51395
        }
      }
    }
  }
  JOINT RightUpLeg
  {
    OFFSET -8.9458 -8.66707 0.101652
    CHANNELS 3 Zrotation Xrotation Yrotation
    JOINT RightLeg
    {
      OFFSET 0 -44.4227 1.3727
      CHANNELS 3 Zrotation Xrotation Yrotation
      JOINT RightFoot
      {
        OFFSET 0.253549 -42.0924 -1.46059
        CHANNELS 3 Zrotation Xrotation Yrotation
        JOINT RightToes
        {
          OFFSET 0.04 -4.41509 8.4991
          CHANNELS 3 Zrotation Xrotation Yrotation
          End Site
          {
            OFFSET -0.08 -0.137448 9.77979
          }
        }
      }
    }
  }
}
MOTION
Frames:	17
Frame Time:	0.0333333
94.8133 100.02 0.555971 -1.63854 0.553332 -87.2373 -0.35618 9.8013 2.82337 1.14331 28.1449 20.7217 -12.7136 -15.8869 -0.858515 -1.32376e-009 8.75234e-006 -1.47962e-008 6.3863 15.5146 -0.925793 -0.908743 -2.29554 0.210559 34.6228 1.75776 0.288008 38.6593 -9.87416 10.4461 3.43281 22.1651 19.779 -7.91189 9.59718 -0.565561 -42.8937 3.42562 -3.42831 -24.5526 -20.0421 8.05957 12.856 37.6044 -41.579 5.82328 9.61819 -0.917488 -0.39523 -15.192 -8.03728 0.864913 -16.338 -6.02075 2.22251 20.7027 -15.0802 1.3503 -9.10786 -0.164025 0.0462048 0.000530892 0.662642 
96.9872 99.5737 1.06529 -1.70005 1.31488 -87.1585 0.0718895 11.5147 4.50397 1.06107 23.0642 19.9344 -13.9337 -19.5987 -1.38708 -1.32376e-009 8.75234e-006 -1.47962e-008 6.54376 15.7731 -0.919408 -0.352911 -2.3917 0.0697474 34.5316 1.76075 0.296857 38.3246 -9.63432 10.963 3.57366 21.8617 19.7312 -8.0713 9.60653 -0.826992 -43.1486 3.45563 -3.45001 -24.5813 -20.1114 8.02548 13.2571 37.8023 -42.078 5.82328 9.61819 -0.917488 -0.442798 -15.0462 -7.97389 1.22913 -17.8582 -6.61935 2.08248 20.8891 -14.7373 1.18868 -7.78259 -0.170884 0.0462048 0.000530892 0.662642 
99.3211 99.0531 1.53744 -1.91621 1.57533 -87.0836 -0.304378 12.3352 5.21976 0.977108 19.5195 20.2314 -12.5155 -23.415 -1.65206 -1.32376e-009 8.75234e-006 -1.47962e-008 5.9371 16.2839 -0.827748 0.322651 -2.38839 -0.0502963 34.8191 1.76803 0.287796 37.8002 -9.68483 11.7479 3.79198 21.7929 19.4281 -8.3017 9.60953 -1.02084 -43.2437 3.469 -3.46239 -24.7469 -19.997 7.7442 13.6017 38.1221 -42.1964 5.82328 9.61819 -0.917488 -0.142149 -15.0678 -7.91363 1.293 -19.5833 -7.26503 1.50436 21.5447 -14.2092 0.603672 -6.46033 -0.169934 0.0462048 0.000530892 0.662642 
101.697 98.5669 1.94516 -2.32509 1.14452 -87.0637 -1.47188 12.3168 4.85844 0.873213 17.9045 21.6643 -9.71993 -26.2534 -1.49901 -1.32376e-009 8.75234e-006 -1.47962e-008 4.65939 16.9062 -0.670805 0.654904 -2.21131 -0.113999 35.2554 1.77675 0.268117 37.725 -10.5605 12.6424 3.90832 22.7905 18.7346 -8.40519 9.59334 -0.827921 -43.0755 3.44688 -3.44353 -25.0006 -19.4488 7.15917 13.7217 38.5405 -41.6388 5.82328 9.61819 -0.917488 0.518355 -15.2027 -7.89753 0.778184 -21.149 -7.79453 0.750092 22.2549 -13.6852 -0.0366317 -5.12101 -0.154301 0.0462048 0.000530892 0.662642 
103.954 98.1945 2.32198 -3.01957 0.213467 -87.1545 -3.04869 11.9188 4.23834 0.810965 17.7155 22.9827 -8.05908 -28.0722 -1.34531 -1.32376e-009 8.75234e-006 -1.47962e-008 3.15649 17.5778 -0.478877 0.479824 -1.90429 -0.0916705 35.4793 1.7799 0.253889 38.3807 -12.0235 13.312 3.98791 24.5232 17.8185 -8.55685 9.56478 -0.481973 -42.9748 3.42804 -3.4209 -24.9546 -18.488 6.54747 13.5037 38.8381 -40.5971 5.82328 9.61819 -0.917488 1.15996 -15.1635 -7.9462 -0.428521 -22.072 -8.61085 0.247183 22.5859 -12.8425 -0.426867 -3.80399 -0.132134 0.0462048 0.000530892 0.662642 
105.965 97.9829 2.69311 -4.06078 -0.964827 -87.3734 -4.73368 11.4773 3.72334 0.764265 18.5529 23.741 -8.01895 -28.9962 -1.4003 -1.32376e-009 8.75234e-006 -1.47962e-008 1.71187 18.259 -0.255774 -0.061525 -1.46961 0.024524 35.4776 1.78153 0.251424 39.2583 -13.0666 13.4994 4.18854 25.7654 17.0233 -8.75616 9.55756 -0.499324 -43.2177 3.45101 -3.4302 -24.4553 -17.3693 6.16799 13.0175 38.8888 -39.4299 5.82328 9.61819 -0.917488 1.47226 -14.8468 -8.0834 -2.10824 -22.0673 -9.72319 0.135015 22.289 -11.6782 -0.578876 -2.52444 -0.112023 0.0462048 0.000530892 0.662642 
107.663 97.9286 3.05175 -5.26543 -2.08295 -87.7301 -6.30031 11.1359 3.399 0.747131 19.8109 24.3618 -8.12446 -29.0687 -1.42593 -1.32376e-009 8.75234e-006 -1.47962e-008 0.669451 18.6962 -0.0321021 -0.851716 -0.854311 0.245734 35.4952 1.78271 0.253132 39.7899 -13.17 13.111 4.45277 26.3235 16.4728 -8.60013 9.58505 -0.821201 -43.5938 3.49443 -3.46008 -23.9047 -16.3156 6.08309 12.3385 38.7859 -38.0836 5.82328 9.61819 -0.917488 1.46489 -14.3521 -8.31778 -3.61602 -21.284 -10.0211 0.395865 21.2238 -11.2073 -0.582593 -1.15717 -0.095956 0.0462048 0.000530892 0.662642 
109.015 98.0142 3.38769 -6.23878 -2.76938 -88.1306 -7.45105 10.994 3.17935 0.736715 20.4453 25.1643 -7.56458 -28.56 -1.28256 -1.32376e-009 8.75234e-006 -1.47962e-008 0.366923 18.5935 0.125773 -1.78361 -0.234616 0.541352 35.6373 1.78347 0.247858 39.9649 -12.9201 12.1444 4.586 27.2999 15.9936 -7.94848 9.61458 -0.876775 -43.716 3.50839 -3.4693 -23.7952 -15.3581 6.34964 11.4017 38.566 -36.2841 5.82328 9.61819 -0.917488 1.26163 -13.6006 -8.57793 -4.39905 -20.1028 -8.67784 0.907133 19.2145 -12.2339 -0.416752 0.494555 -0.0888531 0.0462048 0.000530892 0.662642 
110.033 98.1673 3.68799 -6.71751 -3.04337 -88.3596 -8.09445 10.8977 2.90883 0.705883 20.258 25.8355 -6.9322 -28.0171 -1.12864 -1.32376e-009 8.75234e-006 -1.47962e-008 0.473927 17.9638 0.190326 -2.51527 0.0116958 0.764505 35.7942 1.78388 0.232175 39.9631 -13.0078 10.6814 4.5687 29.0785 15.462 -7.26657 9.62301 -0.54656 -43.578 3.48986 -3.45336 -24.1362 -14.4577 7.07275 10.2233 38.1074 -34.2013 5.82328 9.61819 -0.917488 0.95426 -12.4498 -8.71661 -4.63102 -18.9702 -6.61207 1.32108 16.6351 -14.0526 -0.0677907 2.28055 -0.100952 0.0462048 0.000530892 0.662642 
110.81 98.3004 3.93404 -6.85966 -3.19852 -88.2211 -8.43474 10.6268 2.55009 0.702075 20.0495 26.0209 -6.67115 -27.7049 -1.06234 -1.32376e-009 8.75234e-006 -1.47962e-008 0.332791 17.2138 0.182257 -2.61238 -0.12143 0.753036 35.8727 1.78396 0.213152 39.8017 -13.3843 8.99541 4.58143 30.5634 14.9937 -6.95049 9.62728 -0.373573 -43.4968 3.48225 -3.45049 -24.5785 -13.6248 8.10922 8.9873 37.3625 -32.3056 5.82328 9.61819 -0.917488 0.671976 -11.2735 -8.65575 -4.83695 -18.0567 -5.32682 1.47733 14.1803 -15.4672 0.280985 3.85846 -0.124442 0.0462048 0.000530892 0.662642 
111.453 98.3675 4.10325 -7.09837 -3.42579 -87.7638 -8.74015 10.3399 2.16141 0.795 20.345 25.9128 -6.47346 -27.5001 -1.01493 -1.32376e-009 8.75234e-006 -1.47962e-008 -0.243988 16.7624 0.131225 -2.14137 -0.185055 0.540322 35.9308 1.78377 0.197444 39.5433 -13.8363 7.48532 4.75766 30.9743 14.6308 -6.88739 9.64315 -0.629858 -43.6062 3.50193 -3.47308 -24.9363 -12.8241 8.96897 7.78252 36.4408 -30.6081 5.82328 9.61819 -0.917488 0.56571 -10.8419 -8.48433 -5.25913 -17.1813 -5.11796 1.55345 12.3107 -16.1914 0.362128 5.03811 -0.128534 0.0462048 0.000530892 0.662642 
111.995 98.3575 4.1977 -7.65036 -3.6515 -87.2863 -9.04569 10.3049 1.73626 0.957348 20.9694 25.9921 -6.18349 -27.3553 -0.954775 -1.32376e-009 8.75234e-006 -1.47962e-008 -0.786727 16.6871 0.0746774 -1.66178 0.0911205 0.339777 36.0531 1.78334 0.186277 39.3855 -14.7737 6.38757 5.08227 31.216 14.0915 -6.91817 9.65608 -0.908769 -43.7259 3.52034 -3.49152 -25.3228 -11.8642 9.26189 6.52054 35.3972 -28.6586 5.82328 9.61819 -0.917488 0.67072 -11.3768 -8.34769 -5.66927 -16.222 -5.43156 1.63232 11.0803 -16.3842 0.022902 5.89386 -0.0856559 0.0462048 0.000530892 0.662642 
112.414 98.2877 4.2509 -8.30452 -3.78082 -87.041 -9.28866 10.4188 1.30558 1.10158 21.644 26.3493 -6.0467 -27.3607 -0.930486 -1.32376e-009 8.75234e-006 -1.47962e-008 -0.955645 16.7851 0.0570605 -1.5492 0.427383 0.299135 36.209 1.78274 0.180199 39.4053 -16.6293 5.65 5.45885 32.5402 13.1082 -7.02765 9.6503 -0.879239 -43.711 3.51757 -3.48828 -25.7817 -10.8709 9.10751 5.16462 34.4422 -26.3424 5.82328 9.61819 -0.917488 0.871182 -12.2185 -8.29437 -5.85309 -15.4062 -5.71558 1.65566 10.3785 -16.2653 -0.664445 6.5551 0.00341927 0.0462048 0.000530892 0.662642 
112.706 98.1913 4.29623 -8.76256 -3.85458 -87.0263 -9.50132 10.3987 0.950929 1.19233 22.3132 26.7606 -6.07838 -27.4835 -0.942474 -1.32376e-009 8.75234e-006 -1.47962e-008 -0.910432 16.8613 0.08306 -1.67176 0.488298 0.368271 36.316 1.78199 0.179201 39.4759 -18.9052 5.12639 5.81914 34.7361 11.8666 -7.02423 9.64391 -0.753018 -43.6746 3.51388 -3.48645 -25.9964 -10.9438 8.93316 3.79298 34.481 -24.1276 5.82328 9.61819 -0.917488 0.999626 -12.7126 -8.26572 -5.89068 -15.0116 -5.78797 1.6025 10.1286 -16.0945 -1.389 7.02513 0.101642 0.0462048 0.000530892 0.662642 
112.886 98.1079 4.33838 -9.0235 -3.90353 -87.1197 -9.69316 10.3128 0.699458 1.24305 22.8354 27.1473 -6.03132 -27.5768 -0.938706 -1.32376e-009 8.75234e-006 -1.47962e-008 -0.806581 16.8572 0.106349 -1.80508 0.393294 0.438477 36.3769 1.78115 0.179908 39.4719 -20.6029 4.75356 6.11008 36.5655 10.8472 -6.63601 9.66078 -0.782052 -43.7652 3.5281 -3.50092 -25.8958 -11.9736 8.9201 2.53013 35.146 -22.3338 5.82328 9.61819 -0.917488 0.949194 -12.9349 -8.19544 -5.91267 -14.8842 -5.8398 1.57617 10.1047 -15.9241 -1.85451 7.30368 0.167462 0.0462048 0.000530892 0.662642 
112.947 98.0675 4.35817 -9.25204 -3.90643 -87.2648 -9.81186 10.4433 0.567993 1.26885 22.9851 27.5169 -5.94937 -27.5886 -0.9244 -1.32376e-009 8.75234e-006 -1.47962e-008 -0.64549 16.7472 0.105744 -1.94147 0.427109 0.49046 36.4543 1.78027 0.179231 39.3883 -21.3406 4.51908 6.30229 37.3863 10.303 -6.06838 9.68699 -0.863397 -43.9333 3.54578 -3.51049 -25.668 -13.2615 8.9613 1.50126 35.8399 -20.9387 5.82328 9.61819 -0.917488 0.771846 -13.2006 -8.06326 -5.96388 -14.6722 -6.02472 1.72494 10.0246 -15.6603 -2.0925 7.4526 0.202207 0.0462048 0.000530892 0.662642 
112.893 98.0729 4.34958 -9.44466 -3.86944 -87.4489 -9.85222 10.7359 0.536936 1.27983 22.8464 27.8189 -6.08518 -27.5525 -0.947239 -1.32376e-009 8.75234e-006 -1.47962e-008 -0.503963 16.5052 0.104007 -2.02736 0.578199 0.525481 36.5018 1.77938 0.179845 39.3071 -21.4007 4.39665 6.40068 37.4213 10.1585 -5.92134 9.69349 -0.881879 -44.0664 3.55157 -3.50039 -25.4974 -14.538 9.00073 0.789111 36.6728 -19.8887 5.82328 9.61819 -0.917488 0.638569 -13.3855 -7.86919 -6.02686 -14.3411 -6.29509 2.02392 9.79635 -15.2942 -2.34696 7.5514 0.23835 0.0462048 0.000530892 0.662642 
